<svg width="161" height="91" viewBox="0 0 161 91" fill="none" xmlns="http://www.w3.org/2000/svg">
<path d="M1.96 69C1.26 69 0.91 68.7433 0.91 68.23C0.91 67.7167 1.21333 67.4367 1.82 67.39L3.22 67.25C4.38667 67.1567 5.13333 66.9 5.46 66.48C5.78667 66.0133 5.95 65.29 5.95 64.31V36.94C5.95 35.82 5.39 35.26 4.27 35.26H2.66C2.1 35.26 1.82 35.0267 1.82 34.56C1.82 34.0933 2.1 33.8367 2.66 33.79C4.85333 33.5567 5.95 32.6 5.95 30.92V30.5C5.95 28.0733 6.41667 25.81 7.35 23.71C8.28333 21.61 9.63667 19.9067 11.41 18.6C13.23 17.2933 15.4 16.64 17.92 16.64C20.5333 16.64 22.7033 17.55 24.43 19.37C24.6633 19.6033 24.8967 19.72 25.13 19.72C25.3633 19.6733 25.5267 19.4867 25.62 19.16C25.9 18.32 26.1333 17.76 26.32 17.48C26.5533 17.1533 26.88 16.99 27.3 16.99C27.9067 16.99 28.21 17.4333 28.21 18.32V64.31C28.21 65.29 28.35 65.99 28.63 66.41C28.9567 66.7833 29.61 67.04 30.59 67.18L32.2 67.39C32.7133 67.4833 32.97 67.7633 32.97 68.23C32.97 68.7433 32.69 69 32.13 69H19.67C19.11 69 18.83 68.7433 18.83 68.23C18.83 67.7633 19.0867 67.4833 19.6 67.39L20.58 67.25C21.56 67.11 22.2833 66.83 22.75 66.41C23.2167 65.99 23.45 65.29 23.45 64.31V26.58C23.45 24.2933 23.0067 22.3567 22.12 20.77C21.2333 19.1833 19.6467 18.39 17.36 18.39C16.1933 18.39 15.0967 18.67 14.07 19.23C13.09 19.79 12.2733 20.7467 11.62 22.1C11.0133 23.4533 10.71 25.32 10.71 27.7V32.46C10.71 33.02 10.99 33.3 11.55 33.3H17.57C18.27 33.3 18.62 33.6267 18.62 34.28C18.62 34.9333 18.27 35.26 17.57 35.26H11.55C10.99 35.26 10.71 35.54 10.71 36.1V64.31C10.71 65.29 10.85 65.99 11.13 66.41C11.41 66.83 11.9467 67.0867 12.74 67.18L14.49 67.39C15.0033 67.4833 15.26 67.74 15.26 68.16C15.26 68.72 14.91 69 14.21 69H1.96ZM47.9112 69.63C45.5312 69.63 43.3845 68.8367 41.4712 67.25C39.6045 65.6167 38.1112 63.4 36.9912 60.6C35.8712 57.8 35.3112 54.6733 35.3112 51.22C35.3112 47.7667 35.8712 44.6633 36.9912 41.91C38.1112 39.1567 39.6278 36.9633 41.5412 35.33C43.4545 33.6967 45.5778 32.88 47.9112 32.88C50.2912 32.88 52.4145 33.6967 54.2812 35.33C56.1945 36.9633 57.7112 39.1567 58.8312 41.91C59.9512 44.6633 60.5112 47.7667 60.5112 51.22C60.5112 54.6733 59.9512 57.8 58.8312 60.6C57.7578 63.4 56.2645 65.6167 54.3512 67.25C52.4378 68.8367 50.2912 69.63 47.9112 69.63ZM47.9112 67.88C52.7645 67.88 55.1912 62.3267 55.1912 51.22C55.1912 40.16 52.7645 34.63 47.9112 34.63C43.0578 34.63 40.6312 40.16 40.6312 51.22C40.6312 62.3267 43.0578 67.88 47.9112 67.88ZM74.9552 69.63C74.3486 69.63 73.9286 69.1633 73.6952 68.23L65.2252 37.99C64.8986 36.87 64.5719 36.1467 64.2452 35.82C63.9652 35.4933 63.4986 35.26 62.8452 35.12L61.7952 34.91C61.1886 34.77 60.8852 34.4667 60.8852 34C60.8852 33.5333 61.2119 33.3 61.8652 33.3H73.2052C73.8586 33.3 74.1852 33.5333 74.1852 34C74.1852 34.5133 73.8819 34.8167 73.2752 34.91L72.1552 35.05C71.0352 35.19 70.3352 35.47 70.0552 35.89C69.7752 36.2633 69.7752 36.9633 70.0552 37.99L75.5852 58.36C75.7252 58.8267 75.9352 59.06 76.2152 59.06C76.5419 59.06 76.7752 58.8267 76.9152 58.36L81.6752 40.23C81.7686 39.8567 81.8152 39.4833 81.8152 39.11C81.8619 38.7367 81.8152 38.34 81.6752 37.92C81.3486 36.8 81.0219 36.1 80.6952 35.82C80.4152 35.4933 79.9486 35.26 79.2952 35.12L78.2452 34.91C77.6386 34.77 77.3352 34.4667 77.3352 34C77.3352 33.5333 77.6619 33.3 78.3152 33.3H89.6552C90.3086 33.3 90.6352 33.5333 90.6352 34C90.6352 34.5133 90.3319 34.8167 89.7252 34.91L88.6052 35.05C87.4852 35.19 86.8086 35.47 86.5752 35.89C86.3419 36.2633 86.3186 36.9633 86.5052 37.99L90.9852 58.22C91.0786 58.6867 91.2652 58.92 91.5452 58.92C91.8719 58.92 92.1052 58.6867 92.2452 58.22L97.5652 39.25C97.9386 37.99 98.0319 37.0567 97.8452 36.45C97.7052 35.7967 97.0519 35.3767 95.8852 35.19L94.4152 34.91C93.8086 34.77 93.5052 34.4667 93.5052 34C93.5052 33.5333 93.8319 33.3 94.4852 33.3H103.235C103.889 33.3 104.215 33.5567 104.215 34.07C104.215 34.5367 103.935 34.8633 103.375 35.05L102.745 35.26C102.045 35.4933 101.439 35.9133 100.925 36.52C100.412 37.1267 99.9452 38.1767 99.5252 39.67L91.5452 68.23C91.3119 69.1633 90.8686 69.63 90.2152 69.63C89.6552 69.63 89.2586 69.1633 89.0252 68.23L83.5652 45.83C83.4252 45.3167 83.1919 45.06 82.8652 45.06C82.5852 45.0133 82.3752 45.27 82.2352 45.83L76.2152 68.23C75.9819 69.1633 75.5619 69.63 74.9552 69.63ZM115.413 69.63C113.359 69.63 111.493 68.9533 109.813 67.6C108.179 66.2 106.873 64.2167 105.893 61.65C104.913 59.0833 104.423 56.0267 104.423 52.48C104.423 48.5133 105.006 45.06 106.173 42.12C107.386 39.18 109.019 36.9167 111.073 35.33C113.126 33.6967 115.413 32.88 117.933 32.88C120.079 32.88 121.759 33.3 122.973 34.14C123.439 34.4667 123.673 34.98 123.673 35.68L123.813 44.22C123.813 44.92 123.533 45.27 122.973 45.27C122.459 45.27 122.133 44.9667 121.993 44.36C121.339 41.7933 120.709 39.81 120.103 38.41C119.496 37.01 118.866 36.0533 118.213 35.54C117.559 34.98 116.836 34.7 116.043 34.7C115.109 34.7 114.129 35.2367 113.102 36.31C112.123 37.3833 111.283 39.1333 110.583 41.56C109.929 43.94 109.603 47.09 109.603 51.01C109.603 56.0033 110.233 59.76 111.493 62.28C112.799 64.8 114.479 66.06 116.533 66.06C118.166 66.06 119.519 65.3833 120.593 64.03C121.713 62.6767 122.669 60.2267 123.463 56.68C123.603 56.1667 123.883 55.91 124.303 55.91C124.863 55.91 125.073 56.3767 124.933 57.31C124.419 60.5767 123.696 63.12 122.763 64.94C121.876 66.7133 120.803 67.95 119.543 68.65C118.329 69.3033 116.953 69.63 115.413 69.63ZM136.823 69.63C135.19 69.63 133.837 69.07 132.763 67.95C131.737 66.7833 131.223 64.8933 131.223 62.28V36.1C131.223 35.54 130.943 35.26 130.383 35.26H128.353C127.607 35.26 127.233 34.98 127.233 34.42C127.233 34.0467 127.443 33.72 127.863 33.44C129.403 32.3667 130.64 31.2233 131.573 30.01C132.507 28.75 133.323 27.0467 134.023 24.9C134.35 23.92 134.747 23.43 135.213 23.43C135.727 23.43 135.983 23.8033 135.983 24.55V32.32C135.983 32.9733 136.31 33.3 136.963 33.3H141.513C142.26 33.3 142.633 33.6267 142.633 34.28C142.633 34.9333 142.26 35.26 141.513 35.26H136.963C136.31 35.26 135.983 35.5867 135.983 36.24V62.35C135.983 63.3767 136.147 64.1933 136.473 64.8C136.8 65.36 137.407 65.64 138.293 65.64C139.273 65.64 140.067 65.15 140.673 64.17C141.327 63.19 141.747 61.6033 141.933 59.41C142.027 58.7567 142.33 58.43 142.843 58.43C143.403 58.43 143.683 58.78 143.683 59.48C143.543 63.0733 142.797 65.6633 141.443 67.25C140.137 68.8367 138.597 69.63 136.823 69.63ZM146.048 69C145.488 69 145.208 68.7433 145.208 68.23C145.208 67.7633 145.465 67.4833 145.978 67.39L146.958 67.25C147.938 67.11 148.662 66.83 149.128 66.41C149.595 65.99 149.828 65.29 149.828 64.31V24.2C149.828 23.36 149.688 22.7767 149.408 22.45C149.175 22.1233 148.732 21.9367 148.078 21.89L146.468 21.68C145.955 21.5867 145.698 21.3067 145.698 20.84C145.698 20.3733 145.955 20.0933 146.468 20C147.775 19.72 148.895 19.3933 149.828 19.02C150.762 18.6467 151.532 18.2733 152.138 17.9C152.885 17.4333 153.445 17.2 153.818 17.2C154.332 17.2 154.588 17.5733 154.588 18.32V64.31C154.588 65.29 154.728 65.99 155.008 66.41C155.335 66.7833 155.988 67.04 156.968 67.18L158.578 67.39C159.092 67.4833 159.348 67.7633 159.348 68.23C159.348 68.7433 159.068 69 158.508 69H146.048Z" fill="#1E1E1E"/>
</svg>
