<svg width="494" height="117" viewBox="0 0 494 117" fill="none" xmlns="http://www.w3.org/2000/svg">
<path d="M184.635 47.2625C185.503 48.0917 186.198 48.9554 186.719 49.8536C187.24 50.7519 187.5 51.7538 187.5 52.8594C187.5 53.9649 187.196 55.0705 186.589 56.176C185.981 57.2816 185.156 58.249 184.115 59.0781C176.476 64.7441 168.663 68.9245 160.677 71.6193C152.691 74.3141 144.271 75.6615 135.417 75.6615C128.993 75.6615 122.222 74.9014 115.104 73.3813C107.986 71.8611 98.7847 69.2354 87.5 65.5042C77.6042 62.3257 70.0087 60.1146 64.7135 58.8708C59.4184 57.6271 54.5139 57.0052 50 57.0052C44.0972 57.0052 38.5851 58.0417 33.4635 60.1146C28.342 62.1875 23.1771 65.4351 17.9688 69.8573C16.9271 70.6865 15.7118 71.3429 14.3229 71.8266C12.934 72.3102 11.5451 72.5521 10.1562 72.5521C8.76736 72.5521 7.50868 72.3448 6.38021 71.9302C5.25174 71.5156 4.16667 70.9629 3.125 70.2719C2.08333 69.4427 1.30208 68.5099 0.78125 67.4734C0.260417 66.437 0 65.366 0 64.2604C0 63.1549 0.260417 62.1184 0.78125 61.1511C1.30208 60.1837 1.99653 59.2854 2.86458 58.4563C9.98264 52.3757 17.4479 47.8498 25.2604 44.8787C33.0729 41.9075 41.3194 40.4219 50 40.4219C56.0764 40.4219 62.4566 41.1474 69.1406 42.5984C75.8247 44.0495 84.5486 46.5715 95.3125 50.1646C105.729 53.6194 113.715 55.9688 119.271 57.2125C124.826 58.4563 130.122 59.0781 135.156 59.0781C141.233 59.0781 147.092 58.0762 152.734 56.0724C158.377 54.0686 164.063 50.9938 169.792 46.8479C170.833 46.157 171.962 45.6042 173.177 45.1896C174.392 44.775 175.694 44.5677 177.083 44.5677C178.472 44.5677 179.818 44.775 181.12 45.1896C182.422 45.6042 183.594 46.2951 184.635 47.2625ZM184.635 6.84062C185.503 7.66979 186.198 8.53351 186.719 9.43177C187.24 10.33 187.5 11.3319 187.5 12.4375C187.5 13.5431 187.196 14.6486 186.589 15.7542C185.981 16.8597 185.156 17.8271 184.115 18.6563C176.476 24.3222 168.707 28.5026 160.807 31.1974C152.908 33.8922 144.531 35.2396 135.677 35.2396C129.253 35.2396 122.396 34.4795 115.104 32.9594C107.813 31.4392 98.6111 28.8135 87.5 25.0823C77.6042 21.9038 70.0521 19.6927 64.8438 18.449C59.6354 17.2052 54.7743 16.5833 50.2604 16.5833C44.3576 16.5833 38.7587 17.6198 33.4635 19.6927C28.1684 21.7656 23.0035 25.0132 17.9688 29.4354C16.9271 30.2646 15.7552 30.8865 14.4531 31.301C13.151 31.7156 11.8056 31.9229 10.4167 31.9229C9.02778 31.9229 7.7691 31.7502 6.64062 31.4047C5.51215 31.0592 4.42708 30.541 3.38542 29.85C2.34375 29.0208 1.5191 28.0535 0.911458 26.9479C0.303819 25.8424 0 24.7368 0 23.6313C0 22.5257 0.260417 21.5238 0.78125 20.6255C1.30208 19.7273 1.99653 18.8635 2.86458 18.0344C9.98264 11.9538 17.4479 7.42794 25.2604 4.45676C33.0729 1.48558 41.3194 0 50 0C56.0764 0 62.4566 0.725518 69.1406 2.17656C75.8247 3.6276 84.6354 6.14965 95.5729 9.74271C105.99 13.1976 113.976 15.5469 119.531 16.7906C125.087 18.0344 130.295 18.6563 135.156 18.6563C141.233 18.6563 147.179 17.6198 152.995 15.5469C158.811 13.474 164.497 10.3646 170.052 6.21875C171.094 5.52778 172.222 5.00955 173.438 4.66406C174.653 4.31858 175.868 4.14583 177.083 4.14583C178.472 4.14583 179.861 4.35312 181.25 4.76771C182.639 5.18229 183.767 5.87326 184.635 6.84062ZM184.635 87.6844C185.503 88.5136 186.198 89.3773 186.719 90.2755C187.24 91.1738 187.5 92.1757 187.5 93.2813C187.5 94.3868 187.196 95.4924 186.589 96.5979C185.981 97.7035 185.156 98.6708 184.115 99.5C176.476 105.166 168.707 109.346 160.807 112.041C152.908 114.736 144.531 116.083 135.677 116.083C129.253 116.083 122.396 115.323 115.104 113.803C107.813 112.283 98.6111 109.657 87.5 105.926C77.6042 102.748 70.0521 100.536 64.8438 99.2927C59.6354 98.049 54.7743 97.4271 50.2604 97.4271C44.3576 97.4271 38.7587 98.4636 33.4635 100.536C28.1684 102.609 23.0035 105.857 17.9688 110.279C16.9271 111.247 15.7552 111.938 14.4531 112.352C13.151 112.767 11.8056 112.974 10.4167 112.974C9.02778 112.974 7.72569 112.767 6.51042 112.352C5.29514 111.938 4.16667 111.385 3.125 110.694C2.08333 109.865 1.30208 108.932 0.78125 107.895C0.260417 106.859 0 105.788 0 104.682C0 103.577 0.260417 102.54 0.78125 101.573C1.30208 100.606 1.99653 99.7073 2.86458 98.8781C9.98264 92.7976 17.4045 88.2717 25.1302 85.3005C32.8559 82.3293 41.1458 80.8438 50 80.8438C56.0764 80.8438 62.4566 81.5347 69.1406 82.9167C75.8247 84.2986 84.5486 86.7861 95.3125 90.3792C105.729 93.834 113.715 96.1833 119.271 97.4271C124.826 98.6708 130.122 99.2927 135.156 99.2927C141.233 99.2927 147.179 98.2908 152.995 96.287C158.811 94.2832 164.497 91.2083 170.052 87.0625C171.094 86.3715 172.222 85.8533 173.438 85.5078C174.653 85.1623 175.868 84.9896 177.083 84.9896C178.472 84.9896 179.861 85.1969 181.25 85.6115C182.639 86.026 183.767 86.717 184.635 87.6844Z" fill="#155DFC"/>
<path d="M209.318 88.5417V82.9617L216.878 80.8917L215.618 82.6917V46.8717L216.878 48.3117H209.048V42.5517L216.698 40.8417L215.618 42.4617V36.4317C215.618 32.1117 216.548 28.6017 218.408 25.9017C220.268 23.2017 222.818 21.2217 226.058 19.9617C229.358 18.7017 233.108 18.0717 237.308 18.0717C239.588 18.0717 241.988 18.2517 244.508 18.6117C247.088 18.9717 249.728 19.5417 252.428 20.3217L242.798 19.8717L258.368 18.9717V82.6917L257.108 80.8917L264.758 82.9617V88.5417H241.088V82.9617L248.828 80.8917L247.568 82.6917V25.5417L249.728 26.9817C247.628 26.6217 245.618 26.3217 243.698 26.0817C241.778 25.8417 240.068 25.7217 238.568 25.7217C235.568 25.7217 233.228 26.1117 231.548 26.8917C229.928 27.6717 228.728 28.6617 227.948 29.8617C227.228 31.0017 226.778 32.1417 226.598 33.2817C226.478 34.4217 226.418 35.3817 226.418 36.1617V42.4617L225.158 41.1117H238.028L237.848 48.3117H225.158L226.418 46.8717V82.6917L225.248 80.8917L234.068 82.9617V88.5417H209.318Z" fill="black"/>
<path d="M292.925 39.6717C299.885 39.6717 305.285 41.7717 309.125 45.9717C313.025 50.1117 314.975 56.0217 314.975 63.7017C314.975 69.0417 314.015 73.6317 312.095 77.4717C310.235 81.3117 307.535 84.2817 303.995 86.3817C300.515 88.4817 296.315 89.5317 291.395 89.5317C284.495 89.5317 279.125 87.4617 275.285 83.3217C271.505 79.1817 269.615 73.2417 269.615 65.5017C269.615 60.1617 270.545 55.5717 272.405 51.7317C274.265 47.8917 276.935 44.9217 280.415 42.8217C283.895 40.7217 288.065 39.6717 292.925 39.6717ZM292.385 47.4117C288.605 47.4117 285.725 48.8817 283.745 51.8217C281.825 54.7617 280.865 59.1417 280.865 64.9617C280.865 70.7817 281.795 75.0417 283.655 77.7417C285.515 80.4417 288.275 81.7917 291.935 81.7917C294.575 81.7917 296.765 81.1317 298.505 79.8117C300.245 78.4317 301.565 76.4517 302.465 73.8717C303.365 71.2317 303.815 68.0217 303.815 64.2417C303.815 58.6017 302.825 54.4017 300.845 51.6417C298.925 48.8217 296.105 47.4117 292.385 47.4117Z" fill="black"/>
<path d="M372.176 41.0217L390.986 40.3017V45.8817L385.226 47.5917L386.666 46.3317L374.966 88.7217H363.266L352.916 48.7617L354.986 48.8517L343.556 88.7217H331.856L320.786 46.7817L322.046 47.8617L316.376 46.6017V41.0217L336.986 40.3017V45.8817L329.876 47.5917L331.046 46.6017L339.416 82.2417H337.616L348.776 40.9317L360.026 40.2117L370.466 82.6017H368.846L377.846 46.8717L378.926 47.9517L372.176 46.6017V41.0217Z" fill="black"/>
<path d="M413.728 89.5317C409.648 89.5317 405.988 88.5717 402.748 86.6517C399.508 84.7317 396.958 81.9417 395.098 78.2817C393.238 74.6217 392.308 70.2117 392.308 65.0517C392.308 60.4317 392.968 56.5317 394.288 53.3517C395.608 50.1117 397.378 47.5017 399.598 45.5217C401.878 43.4817 404.428 42.0117 407.248 41.1117C410.128 40.1517 413.068 39.6717 416.068 39.6717C418.768 39.6717 421.558 40.0317 424.438 40.7517C427.318 41.4117 429.718 42.2517 431.638 43.2717L431.278 55.7817H424.258L422.998 48.0417L423.898 48.8517C422.758 48.3717 421.468 48.0117 420.028 47.7717C418.648 47.5317 417.388 47.4117 416.248 47.4117C413.488 47.4117 411.148 48.1317 409.228 49.5717C407.368 50.9517 405.958 52.9017 404.998 55.4217C404.038 57.9417 403.558 60.9417 403.558 64.4217C403.558 68.1417 404.068 71.2617 405.088 73.7817C406.168 76.3017 407.668 78.2217 409.588 79.5417C411.508 80.8617 413.698 81.5217 416.158 81.5217C418.138 81.5217 420.268 81.1017 422.548 80.2617C424.828 79.4217 427.198 78.1917 429.658 76.5717L433.258 82.1517C430.018 84.6717 426.748 86.5317 423.448 87.7317C420.148 88.9317 416.908 89.5317 413.728 89.5317Z" fill="black"/>
<path d="M454.312 89.5317C450.532 89.5317 447.622 88.3917 445.582 86.1117C443.542 83.7717 442.522 80.2917 442.522 75.6717V46.4217L444.052 47.9517H435.142V42.1017L444.142 40.3017L442.522 42.1917V30.0417L453.412 28.1517V42.1917L452.152 40.6617H466.012L465.832 47.9517H452.152L453.412 46.4217V74.2317C453.412 76.8117 453.862 78.6717 454.762 79.8117C455.662 80.9517 456.952 81.5217 458.632 81.5217C459.652 81.5217 460.762 81.3417 461.962 80.9817C463.162 80.6217 464.452 80.1717 465.832 79.6317L467.902 85.5717C463.162 88.2117 458.632 89.5317 454.312 89.5317Z" fill="black"/>
<path d="M487.246 82.0617L486.346 81.0717L493.636 82.9617V88.5417H470.146V82.9617L477.346 81.0717L476.446 82.0617V25.9017L477.256 26.8017L470.146 25.0017V19.4217L487.246 18.7017V82.0617Z" fill="black"/>
</svg>
