<svg width="147" height="117" viewBox="0 0 147 117" fill="none" xmlns="http://www.w3.org/2000/svg">
<g clip-path="url(#clip0_8_30)">
<path d="M126.941 52.1625C127.451 52.65 127.859 53.1578 128.166 53.6859C128.472 54.2141 128.625 54.8031 128.625 55.4531C128.625 56.1031 128.446 56.7531 128.089 57.4031C127.732 58.0531 127.247 58.6219 126.634 59.1094C122.143 62.4406 117.549 64.8984 112.853 66.4828C108.157 68.0672 103.206 68.8594 98 68.8594C94.2229 68.8594 90.2417 68.4125 86.0563 67.5187C81.8708 66.625 76.4604 65.0812 69.825 62.8875C64.0063 61.0187 59.5401 59.7187 56.4266 58.9875C53.313 58.2562 50.4292 57.8906 47.775 57.8906C44.3042 57.8906 41.063 58.5 38.0516 59.7188C35.0401 60.9375 32.0031 62.8469 28.9406 65.4469C28.3281 65.9344 27.6135 66.3203 26.7969 66.6047C25.9802 66.8891 25.1635 67.0312 24.3469 67.0312C23.5302 67.0312 22.7901 66.9094 22.1266 66.6656C21.463 66.4219 20.825 66.0969 20.2125 65.6906C19.6 65.2031 19.1406 64.6547 18.8344 64.0453C18.5281 63.4359 18.375 62.8063 18.375 62.1562C18.375 61.5062 18.5281 60.8969 18.8344 60.3281C19.1406 59.7594 19.549 59.2312 20.0594 58.7437C24.2448 55.1687 28.6344 52.5078 33.2281 50.7609C37.8219 49.0141 42.6708 48.1406 47.775 48.1406C51.3479 48.1406 55.0995 48.5672 59.0297 49.4203C62.9599 50.2734 68.0896 51.7562 74.4188 53.8687C80.5438 55.9 85.2396 57.2813 88.5062 58.0125C91.7729 58.7438 94.8865 59.1094 97.8469 59.1094C101.42 59.1094 104.865 58.5203 108.183 57.3422C111.501 56.1641 114.844 54.3563 118.213 51.9188C118.825 51.5125 119.489 51.1875 120.203 50.9437C120.918 50.7 121.683 50.5781 122.5 50.5781C123.317 50.5781 124.108 50.7 124.873 50.9437C125.639 51.1875 126.328 51.5937 126.941 52.1625ZM126.941 28.3969C127.451 28.8844 127.859 29.3922 128.166 29.9203C128.472 30.4484 128.625 31.0375 128.625 31.6875C128.625 32.3375 128.446 32.9875 128.089 33.6375C127.732 34.2875 127.247 34.8562 126.634 35.3438C122.143 38.675 117.574 41.1328 112.93 42.7172C108.285 44.3016 103.359 45.0938 98.1531 45.0938C94.376 45.0938 90.3438 44.6469 86.0563 43.7531C81.7688 42.8594 76.3583 41.3156 69.825 39.1219C64.0063 37.2531 59.5656 35.9531 56.5031 35.2219C53.4406 34.4906 50.5823 34.125 47.9281 34.125C44.4573 34.125 41.1651 34.7344 38.0516 35.9531C34.938 37.1719 31.901 39.0812 28.9406 41.6812C28.3281 42.1687 27.6391 42.5344 26.8734 42.7781C26.1078 43.0219 25.3167 43.1437 24.5 43.1437C23.6833 43.1437 22.9432 43.0422 22.2797 42.8391C21.6161 42.6359 20.9781 42.3312 20.3656 41.925C19.7531 41.4375 19.2682 40.8688 18.9109 40.2188C18.5536 39.5687 18.375 38.9187 18.375 38.2687C18.375 37.6187 18.5281 37.0297 18.8344 36.5016C19.1406 35.9734 19.549 35.4656 20.0594 34.9781C24.2448 31.4031 28.6344 28.7422 33.2281 26.9953C37.8219 25.2484 42.6708 24.375 47.775 24.375C51.3479 24.375 55.0995 24.8016 59.0297 25.6547C62.9599 26.5078 68.1406 27.9906 74.5719 30.1031C80.6969 32.1344 85.3927 33.5156 88.6594 34.2469C91.926 34.9781 94.9885 35.3438 97.8469 35.3438C101.42 35.3438 104.916 34.7344 108.336 33.5156C111.756 32.2969 115.099 30.4688 118.366 28.0312C118.978 27.625 119.642 27.3203 120.356 27.1172C121.071 26.9141 121.785 26.8125 122.5 26.8125C123.317 26.8125 124.133 26.9344 124.95 27.1781C125.767 27.4219 126.43 27.8281 126.941 28.3969ZM126.941 75.9281C127.451 76.4156 127.859 76.9234 128.166 77.4516C128.472 77.9797 128.625 78.5687 128.625 79.2188C128.625 79.8688 128.446 80.5187 128.089 81.1687C127.732 81.8187 127.247 82.3875 126.634 82.875C122.143 86.2063 117.574 88.6641 112.93 90.2484C108.285 91.8328 103.359 92.625 98.1531 92.625C94.376 92.625 90.3438 92.1781 86.0563 91.2844C81.7688 90.3906 76.3583 88.8469 69.825 86.6531C64.0063 84.7844 59.5656 83.4844 56.5031 82.7531C53.4406 82.0219 50.5823 81.6562 47.9281 81.6562C44.4573 81.6562 41.1651 82.2656 38.0516 83.4844C34.938 84.7031 31.901 86.6125 28.9406 89.2125C28.3281 89.7812 27.6391 90.1875 26.8734 90.4312C26.1078 90.675 25.3167 90.7969 24.5 90.7969C23.6833 90.7969 22.9177 90.675 22.2031 90.4312C21.4885 90.1875 20.825 89.8625 20.2125 89.4562C19.6 88.9687 19.1406 88.4203 18.8344 87.8109C18.5281 87.2016 18.375 86.5719 18.375 85.9219C18.375 85.2719 18.5281 84.6625 18.8344 84.0938C19.1406 83.525 19.549 82.9969 20.0594 82.5094C24.2448 78.9344 28.6089 76.2734 33.1516 74.5266C37.6943 72.7797 42.5688 71.9062 47.775 71.9062C51.3479 71.9062 55.0995 72.3125 59.0297 73.125C62.9599 73.9375 68.0896 75.4 74.4188 77.5125C80.5438 79.5437 85.2396 80.925 88.5062 81.6562C91.7729 82.3875 94.8865 82.7531 97.8469 82.7531C101.42 82.7531 104.916 82.1641 108.336 80.9859C111.756 79.8078 115.099 78 118.366 75.5625C118.978 75.1562 119.642 74.8516 120.356 74.6484C121.071 74.4453 121.785 74.3438 122.5 74.3438C123.317 74.3438 124.133 74.4656 124.95 74.7094C125.767 74.9531 126.43 75.3594 126.941 75.9281Z" fill="#155DFC"/>
</g>
<defs>
<clipPath id="clip0_8_30">
<rect width="117" height="147" fill="white" transform="matrix(0 -1 1 0 0 117)"/>
</clipPath>
</defs>
</svg>
